<!--?xml version="1.0" encoding="utf-8"?-->
<!-- Generator: Adobe Illustrator 18.1.1, SVG Export Plug-In . SVG Version: 6.00 Build 0)  -->

<svg version="1.1" id="_x32_" xmlns="http://www.w3.org/2000/svg" xmlns:xlink="http://www.w3.org/1999/xlink" x="0px" y="0px" viewBox="0 0 512 512" style="width: 16px; height: 16px; opacity: 1;" xml:space="preserve">
<style type="text/css">
	.st0{fill:#4B4B4B;}
</style>
<g>
	<path class="st0" d="M511.989,292.396c0.021-16.486-6.344-33.136-18.945-45.703L273.605,27.242
		C262.3,15.936,247.175,9.22,231.184,8.407L66.821,0.032l1.184,0.066C66.974,0.044,65.866,0,64.67,0
		C47.58,0,31.105,6.783,18.944,18.955C6.783,31.106-0.001,47.58,0.011,64.67c0,1.076,0.034,2.172,0.078,3.27l8.297,163.254
		c0.835,15.981,7.54,31.106,18.857,42.421l219.451,219.451c12.578,12.589,29.217,18.955,45.703,18.934
		c16.496,0.021,33.124-6.356,45.703-18.934l154.956-154.945l-11.92-11.92l11.932,11.909
		C505.645,325.521,512.011,308.881,511.989,292.396z M314.26,469.216c-6.08,6.08-13.895,9.044-21.864,9.067
		c-7.969-0.023-15.783-2.986-21.864-9.067L51.082,249.765c-5.4-5.4-8.616-12.633-9.023-20.305L33.762,66.238l-0.034-1.569
		c0-8.188,3.238-16.048,9.055-21.875c5.839-5.839,13.697-9.077,21.886-9.077l1.502,0.044l163.288,8.319
		c7.683,0.396,14.904,3.6,20.305,9.012l219.45,219.45c6.059,6.069,9.033,13.884,9.056,21.853
		c-0.023,7.968-2.986,15.794-9.067,21.886h0.011L314.26,469.216z" style="fill: rgb(75, 75, 75);"></path>
	<path class="st0" d="M105.632,105.642c-15.366,15.378-15.366,40.27,0,55.636c15.366,15.366,40.259,15.366,55.625,0
		c15.366-15.366,15.366-40.259,0-55.636C145.891,90.276,120.998,90.276,105.632,105.642z" style="fill: rgb(75, 75, 75);"></path>
</g>
</svg>
