<!--?xml version="1.0" encoding="utf-8"?-->
<!-- Generator: Adobe Illustrator 15.1.0, SVG Export Plug-In . SVG Version: 6.00 Build 0)  -->

<svg version="1.1" id="_x32_" xmlns="http://www.w3.org/2000/svg" xmlns:xlink="http://www.w3.org/1999/xlink" x="0px" y="0px" width="512px" height="512px" viewBox="0 0 512 512" style="width: 16px; height: 16px; opacity: 1;" xml:space="preserve">
<style type="text/css">

	.st0{fill:#4B4B4B;}

</style>
<g>
	<path class="st0" d="M398.031,43.656c-28.75,0.063-58.313,6.25-85.453,17.875C290.719,70.906,271.688,83.094,256,97.75
		c-15.75-14.656-34.75-26.844-56.594-36.219c-27.156-11.625-56.688-17.813-85.438-17.875H0v359.719h113.969
		c24.313,0,49.406,5.281,72.625,15.219c21.094,9,41.578,23,54.75,37.344c0.938,1.063,9.188,10,9.188,10.031
		c1.406,1.5,3.406,2.375,5.469,2.375s4.063-0.875,5.469-2.406c0,0,8.219-8.938,9.141-9.969
		c13.203-14.375,33.656-28.344,54.734-37.375c23.281-9.938,48.406-15.219,72.688-15.219H512V43.656H398.031z M239.734,411.5
		c-11.953-8.75-25.484-16.406-40.328-22.813c-27.313-11.656-56.875-17.813-85.438-17.813H32.531V76.188h81.438
		c24.172,0,49.281,5.281,72.625,15.266c21.125,8.953,39.469,21.344,53.141,35.891V411.5z M479.469,370.875h-81.438
		c-28.563,0-58.125,6.156-85.453,17.813c-14.734,6.344-28.266,13.984-40.328,22.781V127.344
		c13.688-14.531,32.016-26.938,53.094-35.891c23.406-9.984,48.531-15.266,72.688-15.266h81.438V370.875z" style="fill: rgb(75, 75, 75);"></path>
</g>
</svg>
